HIERARCHY
ROOT Hips
{
	OFFSET 0.000000 87.230942 0.000000
	CHANNELS 6 Xposition Yposition Zposition Xrotation Yrotation Zrotation
	JOINT Pelvis
	{
		OFFSET 0.000000 0.000000 0.000000
		CHANNELS 3 Xrotation Yrotation Zrotation
		JOINT LeftUpLeg
		{
			OFFSET 12.017000 -9.376404 -2.439400
			CHANNELS 3 Xrotation Yrotation Zrotation
			JOINT LeftLeg
			{
				OFFSET -0.007312 -32.846973 2.110600
				CHANNELS 3 Xrotation Yrotation Zrotation
				JOINT LeftFoot
				{
					OFFSET 0.007312 -32.065170 -0.570400
					CHANNELS 3 Xrotation Yrotation Zrotation
					JOINT LeftToeBase
					{
						OFFSET 0.728300 -11.045900 13.180700
						CHANNELS 3 Xrotation Yrotation Zrotation
						End Site
						{
							OFFSET 0.000000 17.212589 0.000000
						}
					}
				}
				JOINT LeftPantLeg
				{
					OFFSET 0.002788 -16.709013 -3.143600
					CHANNELS 3 Xrotation Yrotation Zrotation
					End Site
					{
						OFFSET -0.605125 24.528742 0.000000
					}
				}
			}
			JOINT Left_Butt
			{
				OFFSET -6.630234 1.326584 -3.183700
				CHANNELS 3 Xrotation Yrotation Zrotation
				End Site
				{
					OFFSET -0.498041 20.188049 0.000000
				}
			}
		}
		JOINT RightUpLeg
		{
			OFFSET -11.717000 -9.376404 -2.439400
			CHANNELS 3 Xrotation Yrotation Zrotation
			JOINT RightLeg
			{
				OFFSET -0.003241 -32.846912 2.110600
				CHANNELS 3 Xrotation Yrotation Zrotation
				JOINT RightFoot
				{
					OFFSET 0.003241 -32.065136 -0.570500
					CHANNELS 3 Xrotation Yrotation Zrotation
					JOINT RightToeBase
					{
						OFFSET -0.728300 -11.045901 13.180700
						CHANNELS 3 Xrotation Yrotation Zrotation
						End Site
						{
							OFFSET 0.000000 17.212593 0.000000
						}
					}
				}
				JOINT RightPantLeg
				{
					OFFSET 0.008142 -16.708982 -3.143700
					CHANNELS 3 Xrotation Yrotation Zrotation
					End Site
					{
						OFFSET 0.605088 24.528715 0.000000
					}
				}
			}
			JOINT Right_Butt
			{
				OFFSET 6.630732 1.326584 -3.183700
				CHANNELS 3 Xrotation Yrotation Zrotation
				End Site
				{
					OFFSET 0.498015 20.188240 0.000000
				}
			}
		}
	}
	JOINT Spine
	{
		OFFSET -0.062400 7.848404 3.918300
		CHANNELS 3 Xrotation Yrotation Zrotation
		JOINT Spine1
		{
			OFFSET -0.072800 11.422302 0.713400
			CHANNELS 3 Xrotation Yrotation Zrotation
			JOINT Spine2
			{
				OFFSET -0.083200 13.054001 -1.931600
				CHANNELS 3 Xrotation Yrotation Zrotation
				JOINT Neck
				{
					OFFSET -0.092200 14.121796 -5.138800
					CHANNELS 3 Xrotation Yrotation Zrotation
					JOINT Head
					{
						OFFSET 0.000200 10.447403 -0.842000
						CHANNELS 3 Xrotation Yrotation Zrotation
						JOINT Visor
						{
							OFFSET 0.457100 25.671204 16.550400
							CHANNELS 3 Xrotation Yrotation Zrotation
							End Site
							{
								OFFSET 0.000000 26.061493 0.000000
							}
						}
						JOINT HairMidA
						{
							OFFSET 0.459400 31.585403 8.437400
							CHANNELS 3 Xrotation Yrotation Zrotation
							End Site
							{
								OFFSET 0.000000 26.061493 0.000000
							}
						}
						JOINT HairMidB
						{
							OFFSET 0.464000 33.309204 -8.389700
							CHANNELS 3 Xrotation Yrotation Zrotation
							End Site
							{
								OFFSET 0.000000 26.061493 0.000000
							}
						}
						JOINT HairMidC
						{
							OFFSET 0.466600 27.991196 -17.375099
							CHANNELS 3 Xrotation Yrotation Zrotation
							End Site
							{
								OFFSET 0.000000 26.061493 0.000000
							}
						}
						JOINT HairMidD
						{
							OFFSET 0.467700 17.888092 -21.169500
							CHANNELS 3 Xrotation Yrotation Zrotation
							End Site
							{
								OFFSET 0.000000 26.061493 0.000000
							}
						}
						JOINT HairMidE
						{
							OFFSET 5.325700 3.514603 -14.369699
							CHANNELS 3 Xrotation Yrotation Zrotation
							End Site
							{
								OFFSET 0.000000 26.061493 0.000000
							}
						}
						JOINT HairMidF
						{
							OFFSET -4.394100 3.514603 -14.372400
							CHANNELS 3 Xrotation Yrotation Zrotation
							End Site
							{
								OFFSET 0.000000 26.061493 0.000000
							}
						}
						JOINT HairLeftA
						{
							OFFSET 15.319900 25.746506 2.623300
							CHANNELS 3 Xrotation Yrotation Zrotation
							End Site
							{
								OFFSET 0.000000 26.061493 0.000000
							}
						}
						JOINT HairLeftB
						{
							OFFSET 12.619500 29.289398 -8.731499
							CHANNELS 3 Xrotation Yrotation Zrotation
							End Site
							{
								OFFSET 0.000000 26.061493 0.000000
							}
						}
						JOINT HairLeftC
						{
							OFFSET 15.714800 15.959900 2.909800
							CHANNELS 3 Xrotation Yrotation Zrotation
							End Site
							{
								OFFSET 0.000000 26.061493 0.000000
							}
						}
						JOINT HairLeftD
						{
							OFFSET 16.101700 18.437408 -7.553200
							CHANNELS 3 Xrotation Yrotation Zrotation
							End Site
							{
								OFFSET 0.000000 26.061493 0.000000
							}
						}
						JOINT HairLeftE
						{
							OFFSET 9.731900 17.915009 -18.316799
							CHANNELS 3 Xrotation Yrotation Zrotation
							End Site
							{
								OFFSET 0.000000 26.061493 0.000000
							}
						}
						JOINT HairLeftF
						{
							OFFSET 11.204300 4.953598 -9.668100
							CHANNELS 3 Xrotation Yrotation Zrotation
							End Site
							{
								OFFSET 0.000000 26.061493 0.000000
							}
						}
						JOINT HairRightA
						{
							OFFSET -14.397900 25.746307 2.615100
							CHANNELS 3 Xrotation Yrotation Zrotation
							End Site
							{
								OFFSET 0.000000 26.061493 0.000000
							}
						}
						JOINT HairRightB
						{
							OFFSET -11.691200 29.289200 -8.738199
							CHANNELS 3 Xrotation Yrotation Zrotation
							End Site
							{
								OFFSET 0.000000 26.061493 0.000000
							}
						}
						JOINT HairRightC
						{
							OFFSET -14.792900 15.959702 2.901400
							CHANNELS 3 Xrotation Yrotation Zrotation
							End Site
							{
								OFFSET 0.000000 26.061493 0.000000
							}
						}
						JOINT HairRightD
						{
							OFFSET -15.174000 18.437195 -7.561900
							CHANNELS 3 Xrotation Yrotation Zrotation
							End Site
							{
								OFFSET 0.000000 26.061493 0.000000
							}
						}
						JOINT HairRightE
						{
							OFFSET -8.798200 17.914902 -18.322001
							CHANNELS 3 Xrotation Yrotation Zrotation
							End Site
							{
								OFFSET 0.000000 26.061493 0.000000
							}
						}
						JOINT HairRightF
						{
							OFFSET -10.275200 4.953506 -9.674099
							CHANNELS 3 Xrotation Yrotation Zrotation
							End Site
							{
								OFFSET 0.000000 26.061493 0.000000
							}
						}
					}
				}
				JOINT LeftShoulder
				{
					OFFSET 5.133500 7.341202 -1.867600
					CHANNELS 3 Xrotation Yrotation Zrotation
					JOINT LeftArm
					{
						OFFSET 8.072663 0.936867 -2.176600
						CHANNELS 3 Xrotation Yrotation Zrotation
						JOINT LeftForeArm
						{
							OFFSET 31.271999 0.000000 0.000000
							CHANNELS 3 Xrotation Yrotation Zrotation
							JOINT LeftHand
							{
								OFFSET 31.771030 0.000000 0.000000
								CHANNELS 3 Xrotation Yrotation Zrotation
								JOINT LeftHandThumb1
								{
									OFFSET 2.886520 -2.557846 4.416640
									CHANNELS 3 Xrotation Yrotation Zrotation
									JOINT LeftHandThumb2
									{
										OFFSET 2.371025 -1.368912 1.368911
										CHANNELS 3 Xrotation Yrotation Zrotation
										JOINT LeftHandThumb3
										{
											OFFSET 2.243378 -1.295212 1.295213
											CHANNELS 3 Xrotation Yrotation Zrotation
											End Site
											{
												OFFSET -0.332611 2.876945 0.020015
											}
										}
									}
								}
								JOINT LeftHandIndex1
								{
									OFFSET 8.568985 -0.641945 3.119977
									CHANNELS 3 Xrotation Yrotation Zrotation
									JOINT LeftHandIndex2
									{
										OFFSET 3.348503 0.000000 0.000000
										CHANNELS 3 Xrotation Yrotation Zrotation
										JOINT LeftHandIndex3
										{
											OFFSET 3.314552 0.000000 0.000000
											CHANNELS 3 Xrotation Yrotation Zrotation
											End Site
											{
												OFFSET -1.032898 3.075485 0.678796
											}
										}
									}
								}
								JOINT LeftHandMiddle1
								{
									OFFSET 8.124603 0.000000 0.000000
									CHANNELS 3 Xrotation Yrotation Zrotation
									JOINT LeftHandMiddle2
									{
										OFFSET 4.166275 0.000000 0.000000
										CHANNELS 3 Xrotation Yrotation Zrotation
										JOINT LeftHandMiddle3
										{
											OFFSET 3.018135 0.000000 0.000000
											CHANNELS 3 Xrotation Yrotation Zrotation
											End Site
											{
												OFFSET -1.032700 2.767982 0.617226
											}
										}
									}
								}
								JOINT LeftHandRing1
								{
									OFFSET 8.571686 -0.031357 -2.884048
									CHANNELS 3 Xrotation Yrotation Zrotation
									JOINT LeftHandRing2
									{
										OFFSET 3.671181 0.000000 0.000000
										CHANNELS 3 Xrotation Yrotation Zrotation
										JOINT LeftHandRing3
										{
											OFFSET 2.728851 0.000000 0.000000
											CHANNELS 3 Xrotation Yrotation Zrotation
											End Site
											{
												OFFSET -0.815796 2.539223 0.577389
											}
										}
									}
								}
								JOINT LeftHandPinky1
								{
									OFFSET 7.854515 -0.675232 -5.213020
									CHANNELS 3 Xrotation Yrotation Zrotation
									JOINT LeftHandPinky2
									{
										OFFSET 3.068596 0.000000 0.000000
										CHANNELS 3 Xrotation Yrotation Zrotation
										JOINT LeftHandPinky3
										{
											OFFSET 2.396042 0.000000 0.000000
											CHANNELS 3 Xrotation Yrotation Zrotation
											End Site
											{
												OFFSET -0.524597 2.267998 0.567429
											}
										}
									}
								}
							}
							JOINT LeftSleeve
							{
								OFFSET 19.684509 -0.200119 0.476146
								CHANNELS 3 Xrotation Yrotation Zrotation
								End Site
								{
									OFFSET -0.031017 25.731133 -0.002868
								}
							}
						}
					}
				}
				JOINT RightShoulder
				{
					OFFSET -4.395900 7.341202 -1.870200
					CHANNELS 3 Xrotation Yrotation Zrotation
					JOINT RightArm
					{
						OFFSET -8.071453 0.936867 -2.181100
						CHANNELS 3 Xrotation Yrotation Zrotation
						JOINT RightForeArm
						{
							OFFSET -31.272011 0.000000 0.000000
							CHANNELS 3 Xrotation Yrotation Zrotation
							JOINT RightHand
							{
								OFFSET -31.771019 0.000000 0.000000
								CHANNELS 3 Xrotation Yrotation Zrotation
								JOINT RightHandThumb1
								{
									OFFSET -2.886520 -2.557808 4.416626
									CHANNELS 3 Xrotation Yrotation Zrotation
									JOINT RightHandThumb2
									{
										OFFSET -2.371056 -1.368927 1.368928
										CHANNELS 3 Xrotation Yrotation Zrotation
										JOINT RightHandThumb3
										{
											OFFSET -2.243362 -1.295204 1.295206
											CHANNELS 3 Xrotation Yrotation Zrotation
											End Site
											{
												OFFSET 0.332642 2.876938 0.020047
											}
										}
									}
								}
								JOINT RightHandIndex1
								{
									OFFSET -8.568993 -0.641953 3.120017
									CHANNELS 3 Xrotation Yrotation Zrotation
									JOINT RightHandIndex2
									{
										OFFSET -3.348518 0.000000 0.000000
										CHANNELS 3 Xrotation Yrotation Zrotation
										JOINT RightHandIndex3
										{
											OFFSET -3.314552 0.000000 0.000000
											CHANNELS 3 Xrotation Yrotation Zrotation
											End Site
											{
												OFFSET 1.032898 3.075478 0.678804
											}
										}
									}
								}
								JOINT RightHandMiddle1
								{
									OFFSET -8.124588 0.000000 0.000000
									CHANNELS 3 Xrotation Yrotation Zrotation
									JOINT RightHandMiddle2
									{
										OFFSET -4.166275 0.000000 0.000000
										CHANNELS 3 Xrotation Yrotation Zrotation
										JOINT RightHandMiddle3
										{
											OFFSET -3.018097 0.000000 0.000000
											CHANNELS 3 Xrotation Yrotation Zrotation
											End Site
											{
												OFFSET 1.032700 2.767937 0.617197
											}
										}
									}
								}
								JOINT RightHandRing1
								{
									OFFSET -8.571747 -0.031349 -2.884061
									CHANNELS 3 Xrotation Yrotation Zrotation
									JOINT RightHandRing2
									{
										OFFSET -3.671204 0.000000 0.000000
										CHANNELS 3 Xrotation Yrotation Zrotation
										JOINT RightHandRing3
										{
											OFFSET -2.728874 0.000000 0.000000
											CHANNELS 3 Xrotation Yrotation Zrotation
											End Site
											{
												OFFSET 0.815804 2.539261 0.577413
											}
										}
									}
								}
								JOINT RightHandPinky1
								{
									OFFSET -7.854561 -0.675247 -5.212970
									CHANNELS 3 Xrotation Yrotation Zrotation
									JOINT RightHandPinky2
									{
										OFFSET -3.068550 0.000000 0.000000
										CHANNELS 3 Xrotation Yrotation Zrotation
										JOINT RightHandPinky3
										{
											OFFSET -2.395981 0.000000 0.000000
											CHANNELS 3 Xrotation Yrotation Zrotation
											End Site
											{
												OFFSET 0.524605 2.267952 0.567413
											}
										}
									}
								}
							}
							JOINT RightSleeve
							{
								OFFSET -19.684753 -0.200165 0.476065
								CHANNELS 3 Xrotation Yrotation Zrotation
								End Site
								{
									OFFSET 0.031342 25.731255 -0.002917
								}
							}
						}
					}
				}
				JOINT Hood
				{
					OFFSET 0.369700 14.447800 -5.317800
					CHANNELS 3 Xrotation Yrotation Zrotation
					JOINT Hood1
					{
						OFFSET 0.001700 -5.553802 -5.895100
						CHANNELS 3 Xrotation Yrotation Zrotation
						JOINT Hood2
						{
							OFFSET -0.000200 -8.380501 0.763600
							CHANNELS 3 Xrotation Yrotation Zrotation
							End Site
							{
								OFFSET 0.000000 8.415215 0.000000
							}
						}
					}
				}
				JOINT Left_Breast
				{
					OFFSET 5.682500 3.120102 3.188800
					CHANNELS 3 Xrotation Yrotation Zrotation
					End Site
					{
						OFFSET 0.000000 10.528564 0.000000
					}
				}
				JOINT Right_Breast
				{
					OFFSET -4.947600 3.120102 3.185900
					CHANNELS 3 Xrotation Yrotation Zrotation
					End Site
					{
						OFFSET 0.000000 10.528564 0.000000
					}
				}
				JOINT Whistle
				{
					OFFSET 0.368200 11.471298 0.095400
					CHANNELS 3 Xrotation Yrotation Zrotation
					JOINT Whistle1
					{
						OFFSET -0.002000 -6.349899 7.479800
						CHANNELS 3 Xrotation Yrotation Zrotation
						JOINT Whistle2
						{
							OFFSET -0.001300 -8.217598 4.717600
							CHANNELS 3 Xrotation Yrotation Zrotation
							End Site
							{
								OFFSET 0.000000 9.475479 0.000000
							}
						}
					}
				}
			}
		}
		JOINT Belly
		{
			OFFSET 0.212400 1.593002 3.163700
			CHANNELS 3 Xrotation Yrotation Zrotation
			End Site
			{
				OFFSET 0.000000 7.496635 0.000000
			}
		}
	}
	JOINT FitGrandmaFacialAnim_Joint
	{
		OFFSET 1.150000 -86.211197 -1.220100
		CHANNELS 3 Xrotation Yrotation Zrotation
		End Site
		{
			OFFSET 0.000000 31.666618 0.000000
		}
	}
}
MOTION
Frames: 4
Frame Time: 0.016667
0.264175 80.661011 4.130283 22.708974 0.176573 -6.064036 0.000002 -0.000000 0.000000 -52.473850 0.579937 -2.716520 73.575494 -2.571401 3.302968 -0.604334 1.638532 5.936923 0.000000 0.000000 0.000000 0.000003 0.000001 0.000000 -0.000001 -0.000000 -0.000000 -29.467362 -11.767375 1.114252 33.147878 -3.685452 2.472577 -25.371472 -1.472937 4.045480 -0.000000 -0.000001 0.000000 -0.000001 -0.000000 0.000001 -0.000000 -0.000000 -0.000000 8.988360 2.621003 -0.325159 -0.486221 1.376178 -0.738724 -0.484353 1.393121 -0.752145 -12.183777 0.616445 0.895268 -13.200940 5.313707 -4.930409 0.000000 -0.000000 -0.000000 0.000000 -0.000000 -0.000000 0.000000 -0.000000 -0.000000 0.000000 -0.000000 -0.000000 0.000000 -0.000000 -0.000000 0.000000 -0.000000 -0.000000 0.000000 -0.000000 -0.000000 0.000000 -0.000000 -0.000000 0.000000 -0.000000 -0.000000 0.000000 -0.000000 -0.000000 0.000000 -0.000000 -0.000000 0.000000 -0.000000 -0.000000 0.000000 -0.000000 -0.000000 0.000000 -0.000000 -0.000000 0.000000 -0.000000 -0.000000 0.000000 -0.000000 -0.000000 0.000000 -0.000000 -0.000000 0.000000 -0.000000 -0.000000 0.000000 -0.000000 -0.000000 0.800076 -1.053362 -19.763354 13.552895 -1.213093 -48.473036 -0.000017 -65.396835 0.000000 -23.458462 12.668259 -19.629194 74.823998 -40.508127 61.030315 25.114385 4.278455 -82.291799 0.000000 0.000002 0.000000 5.834346 7.878476 -78.812890 5.407292 5.834243 -85.642847 -0.000001 0.000000 -0.000001 4.932086 8.202267 -90.163394 4.700887 5.737270 -78.644103 -0.000001 -0.000001 -0.000003 4.402404 8.246196 -91.663181 5.862465 5.851096 -90.111512 0.000001 -0.000001 0.000004 5.304519 8.410031 -100.449249 2.535389 4.823606 -55.434618 -0.000001 -0.000001 0.000002 -0.000000 -0.000003 0.000001 0.203551 7.873815 19.585055 11.893546 -9.449223 48.231620 0.000003 63.146991 0.000018 -2.319515 -16.349538 7.973159 47.809723 35.835366 -5.333784 34.631330 -33.014518 35.094598 0.000001 -0.000000 -0.000001 5.182495 -7.113253 78.876254 4.422148 -4.651280 87.104036 -0.000001 0.000001 0.000001 7.506122 -6.722302 94.665042 4.366843 -4.648119 86.421940 0.000000 -0.000002 0.000001 5.682800 -6.829445 102.073865 3.638059 -4.544541 77.346237 0.000001 -0.000001 -0.000001 5.373773 -6.885396 99.411771 1.706922 -3.605085 50.661326 -0.000004 0.000001 -0.000005 -0.000000 -0.000001 -0.000000 -0.000001 0.000000 -0.000000 -0.000001 0.000000 -0.000000 -0.000001 0.000000 -0.000000 -0.000001 0.000000 -0.000000 -0.000001 0.000000 -0.000000 -0.000001 0.000000 -0.000000 -0.000003 0.000000 -0.000000 -0.000003 0.000000 -0.000000 0.000004 -0.000000 -0.000000 0.000002 -0.000000 0.000000 
-0.244374 80.348000 6.039328 23.018987 0.195634 -5.913499 0.000002 -0.000000 -0.000000 -56.204500 1.382665 -3.225462 73.795809 -3.576271 3.316394 -2.748180 2.407072 5.632425 0.000005 -0.000000 -0.000000 -0.000001 0.000000 0.000000 0.000000 -0.000000 -0.000000 -28.069221 -11.816197 1.491475 33.387006 -3.579862 2.386969 -27.389195 -1.521765 3.963738 -0.000000 -0.000000 0.000000 -0.000001 0.000001 0.000000 0.000000 0.000002 0.000001 8.763969 2.823716 -0.635693 -0.496553 1.450543 -0.731989 -0.477000 1.478103 -0.752147 -12.234356 0.523661 0.936672 -13.473427 5.168244 -4.687937 0.000000 0.000000 -0.000001 0.000000 0.000000 -0.000001 0.000000 0.000000 -0.000001 0.000000 0.000000 -0.000001 0.000000 0.000000 -0.000001 0.000000 0.000000 -0.000001 0.000000 0.000000 -0.000001 0.000000 0.000000 -0.000001 0.000000 0.000000 -0.000001 0.000000 0.000000 -0.000001 0.000000 0.000000 -0.000001 0.000000 0.000000 -0.000001 0.000000 0.000000 -0.000001 0.000000 0.000000 -0.000001 0.000000 0.000000 -0.000001 0.000000 0.000000 -0.000001 0.000000 0.000000 -0.000001 0.000000 0.000000 -0.000001 0.000000 0.000000 -0.000001 0.809856 -1.055531 -19.698325 13.400039 -1.470159 -48.429368 -0.000027 -65.609295 -0.000026 -23.708572 13.002243 -19.426738 74.823998 -40.508127 61.030322 25.166949 4.373161 -82.354405 -0.000000 -0.000002 -0.000000 5.840178 7.879059 -78.844965 5.407288 5.834244 -85.642868 0.000001 0.000000 -0.000001 4.933134 8.202428 -90.173687 4.700461 5.737185 -78.639820 0.000001 -0.000000 -0.000003 4.398836 8.245278 -91.628443 5.862172 5.851092 -90.108664 0.000000 0.000001 0.000000 5.300734 8.409652 -100.413418 2.530723 4.820393 -55.379020 -0.000000 -0.000000 -0.000001 -0.000000 0.000001 0.000000 0.179700 8.056685 19.469471 11.883987 -9.750494 48.141034 -0.000021 64.191463 0.000030 -2.283720 -16.744890 8.133048 47.809716 35.835366 -5.333784 34.631330 -33.014518 35.094598 0.000000 -0.000001 -0.000000 5.188541 -7.114431 78.876514 4.422159 -4.651275 87.104050 0.000001 0.000001 -0.000000 7.510139 -6.722910 94.643186 4.366593 -4.648105 86.418818 -0.000000 0.000002 -0.000001 5.680142 -6.830007 102.040328 3.638054 -4.544540 77.346237 -0.000000 -0.000001 -0.000001 5.371733 -6.885682 99.386404 1.706646 -3.604862 50.656972 -0.000003 -0.000002 -0.000001 -0.000001 -0.000000 -0.000002 -0.000002 -0.000000 0.000000 -0.000002 -0.000000 0.000000 -0.000002 -0.000000 0.000000 -0.000002 -0.000000 0.000000 -0.000002 -0.000000 0.000000 -0.000002 -0.000000 0.000000 -0.000005 -0.000001 0.000000 -0.000005 -0.000001 0.000000 0.000002 0.000000 -0.000000 0.000002 -0.000000 -0.000000 
-0.752537 80.023033 7.944740 23.331412 0.211489 -5.763875 -0.000001 -0.000000 0.000000 -59.664223 2.217035 -3.684335 73.494816 -4.657029 3.327298 -4.657612 3.253439 5.377749 0.000001 -0.000000 -0.000000 0.000002 0.000000 0.000001 -0.000000 -0.000001 0.000001 -26.520656 -12.012545 1.925684 33.339376 -3.391364 2.174007 -29.300453 -1.550878 3.872479 0.000000 0.000000 -0.000000 -0.000001 0.000000 -0.000000 0.000000 0.000001 0.000000 8.540893 3.028841 -0.945036 -0.507235 1.525120 -0.724557 -0.469547 1.563695 -0.748852 -12.284886 0.430360 0.978019 -13.746418 5.022099 -4.445270 0.000001 0.000001 -0.000000 0.000001 0.000001 -0.000000 0.000001 0.000001 -0.000000 0.000001 0.000001 -0.000000 0.000001 0.000001 -0.000000 0.000001 0.000001 -0.000000 0.000001 0.000001 -0.000000 0.000001 0.000001 -0.000000 0.000001 0.000001 -0.000000 0.000001 0.000001 -0.000000 0.000001 0.000001 -0.000000 0.000001 0.000001 -0.000000 0.000001 0.000001 -0.000000 0.000001 0.000001 -0.000000 0.000001 0.000001 -0.000000 0.000001 0.000001 -0.000000 0.000001 0.000001 -0.000000 0.000001 0.000001 -0.000000 0.000001 0.000001 -0.000000 0.829641 -1.055379 -19.576796 13.303903 -1.693181 -48.524345 -0.000033 -65.794311 -0.000020 -24.000848 13.236749 -19.197114 74.824005 -40.508127 61.030322 25.309095 4.629921 -82.525624 0.000000 -0.000002 -0.000001 5.855870 7.880542 -78.934393 5.407289 5.834241 -85.642868 -0.000000 -0.000001 -0.000001 4.936094 8.202923 -90.202641 4.699353 5.736970 -78.628735 -0.000001 0.000000 0.000000 4.389622 8.242911 -91.538851 5.861364 5.851096 -90.100714 0.000000 0.000002 0.000001 5.290375 8.408578 -100.315501 2.518098 4.811693 -55.228735 0.000000 -0.000000 -0.000002 -0.000001 -0.000000 0.000000 0.162754 8.201809 19.240262 12.013084 -10.084084 48.107433 -0.000006 65.513207 0.000020 -2.194444 -17.182504 8.317056 47.809716 35.835366 -5.333782 34.631330 -33.014515 35.094595 -0.000001 0.000002 -0.000001 5.206634 -7.117966 78.877272 4.422158 -4.651264 87.104064 -0.000004 0.000000 -0.000000 7.521374 -6.724527 94.584535 4.365932 -4.648065 86.410670 -0.000001 -0.000002 -0.000000 5.673273 -6.831460 101.953838 3.638501 -4.544639 77.351824 0.000001 -0.000001 -0.000001 5.371554 -6.885605 99.321121 1.705942 -3.604280 50.645778 -0.000001 0.000002 0.000000 0.000000 -0.000001 0.000001 -0.000003 0.000000 -0.000000 -0.000003 0.000000 -0.000000 -0.000003 0.000000 -0.000000 -0.000003 0.000000 -0.000000 -0.000003 0.000000 -0.000000 -0.000003 0.000000 -0.000000 -0.000003 0.000000 -0.000000 -0.000003 0.000000 -0.000000 -0.000002 0.000000 -0.000000 -0.000001 -0.000000 0.000000 
-1.263304 79.650436 9.858391 23.670681 0.212653 -5.595425 -0.000001 -0.000000 0.000000 -62.935549 3.006150 -4.104331 72.662735 -5.774165 3.296836 -6.352371 4.248552 5.109928 -0.000001 -0.000000 -0.000000 -0.000000 0.000001 -0.000001 0.000001 -0.000000 -0.000000 -24.935100 -12.312844 2.365887 33.193954 -3.110455 1.876469 -31.182737 -1.570649 3.788804 0.000000 0.000000 -0.000000 -0.000001 -0.000000 0.000001 -0.000000 -0.000000 0.000000 8.312073 3.229941 -1.264327 -0.520797 1.601805 -0.710192 -0.460739 1.655480 -0.739870 -12.336257 0.331891 1.018790 -14.027063 4.875324 -4.190921 0.000000 -0.000000 0.000000 0.000000 -0.000000 0.000000 0.000000 -0.000000 0.000000 0.000000 -0.000000 0.000000 0.000000 -0.000000 0.000000 0.000000 -0.000000 0.000000 0.000000 -0.000000 0.000000 0.000000 -0.000000 0.000000 0.000000 -0.000000 0.000000 0.000000 -0.000000 0.000000 0.000000 -0.000000 0.000000 0.000000 -0.000000 0.000000 0.000000 -0.000000 0.000000 0.000000 -0.000000 0.000000 0.000000 -0.000000 0.000000 0.000000 -0.000000 0.000000 0.000000 -0.000000 0.000000 0.000000 -0.000000 0.000000 0.000000 -0.000000 0.000000 0.857961 -1.055087 -19.402805 13.266416 -1.833224 -48.691630 -0.000007 -65.913832 0.000005 -24.290229 13.359663 -18.989948 74.823998 -40.508127 61.030322 25.517180 5.007336 -82.781681 0.000001 -0.000003 -0.000000 5.878704 7.882537 -79.070887 5.407287 5.834248 -85.642840 0.000001 0.000000 0.000001 4.940642 8.203681 -90.247249 4.697838 5.736666 -78.613633 -0.000001 -0.000000 -0.000003 4.377039 8.239667 -91.416338 5.860141 5.851094 -90.088768 0.000000 0.000000 0.000002 5.274994 8.406996 -100.169840 2.499662 4.798880 -55.008643 0.000002 -0.000000 0.000000 -0.000002 0.000000 0.000001 0.154747 8.315184 18.934697 12.291663 -10.409284 48.204364 -0.000030 66.924447 0.000012 -2.085126 -17.592959 8.432656 47.809719 35.835363 -5.333784 34.631334 -33.014518 35.094598 0.000000 0.000001 0.000001 5.237238 -7.123790 78.883979 4.422158 -4.651280 87.104036 -0.000000 -0.000000 0.000003 7.538611 -6.726838 94.499629 4.365036 -4.648005 86.399598 0.000001 0.000000 -0.000003 5.663863 -6.833422 101.835600 3.639151 -4.544780 77.360205 0.000001 -0.000001 -0.000001 5.371776 -6.885430 99.231877 1.704979 -3.603503 50.630471 -0.000001 0.000000 -0.000001 0.000001 -0.000001 -0.000000 0.000002 0.000000 -0.000000 0.000002 0.000000 -0.000000 0.000002 0.000000 -0.000000 0.000002 0.000000 -0.000000 0.000002 0.000000 -0.000000 0.000002 0.000000 -0.000000 -0.000002 0.000000 -0.000001 -0.000002 0.000000 -0.000001 0.000001 0.000000 -0.000000 -0.000001 -0.000000 0.000000 
